# xmcd
#
# Track frame offsets:
#	150
#	12778
#	29408
#	48203
#	56270
#	67915
#	80420
#	94333
#	110513
#	122190
#	132840
#	147135
#	163245
#	177673
#	189270
#	204460
#	218578
#	230540
#	241945
#	253685
#	262910
#	276765
#	300093
#	307958
#	328900
#
# Disc length: 4533 seconds
#
# Revision: 1
# Processed by: cddbd v1.5.1PL2 Copyright (c) Steve Scherf et al.
# Submitted via: audiograbber 1.83.01
#
DISCID=5611b319
DTITLE=Various Artist - The Greatest Country Show on Earth (live) - cd2
DYEAR=1993
DGENRE=Country
TTITLE0=Tammy Wynette - D.I.V.O.R.C.E.
TTITLE1=The Diamonds - Turn round look at me
TTITLE2=T.G. Sheppard - Last cheaters waltz
TTITLE3=Jerry Lee Lewis - Great balls of fire
TTITLE4=Mickey Gilley - You don't know me
TTITLE5=Faron Young - It's four in the morning
TTITLE6=Dottie West - What are we doing in love
TTITLE7=Sylvia - Nobody
TTITLE8=Dave Rowland and Sugar - Tear time
TTITLE9=The Forrester Sisters - Just in case
TTITLE10=Earl Thomas Conley - Love don't care
TTITLE11=The Bellamy Brothers - Redneck Girl
TTITLE12=Tanya Tucker - What's your mama's name
TTITLE13=George Jones - She's my rock
TTITLE14=Nitty Gritty Dirt Band - Home again in my heart
TTITLE15=Lynn Anderson - Cry
TTITLE16=Johnny Tillotson - It keeps right on a hurtin'
TTITLE17=Tom T. Hall - Ravishing Ruby
TTITLE18=Gene Watson - Memories to burn
TTITLE19=Mell Tillis - Burning memories
TTITLE20=Gus Hardin - All tangled up in love
TTITLE21=Wayne Billingsley - Mac Arthur Park
TTITLE22=Johnny Russell - The baptism of Jesse Taylor
TTITLE23=Gary Morris - Wind beneath my wings
TTITLE24=Eddie Raven - Desperate Dreams
EXTD=
EXTT0=
EXTT1=
EXTT2=
EXTT3=
EXTT4=
EXTT5=
EXTT6=
EXTT7=
EXTT8=
EXTT9=
EXTT10=
EXTT11=
EXTT12=
EXTT13=
EXTT14=
EXTT15=
EXTT16=
EXTT17=
EXTT18=
EXTT19=
EXTT20=
EXTT21=
EXTT22=
EXTT23=
EXTT24=
PLAYORDER=
